<?xml version="1.0" encoding="UTF-8" standalone="no"?>
<!DOCTYPE svg PUBLIC "-//W3C//DTD SVG 1.1//EN" "http://www.w3.org/Graphics/SVG/1.1/DTD/svg11.dtd">
<svg version="1.1" xmlns="http://www.w3.org/2000/svg" xmlns:xlink="http://www.w3.org/1999/xlink" preserveAspectRatio="xMidYMid meet" viewBox="0 0 640 640" width="640" height="640"><defs><path d="M479.68 310.63L479.68 289.3C504.11 289.3 517.69 289.3 520.4 289.3C525.58 289.3 529.78 285.1 529.78 279.92C529.78 274.74 525.58 270.55 520.4 270.55C517.69 270.55 504.11 270.55 479.68 270.55L479.68 249.21C496.64 249.21 506.07 249.21 507.95 249.21C518.48 249.21 528.39 245.11 535.84 237.66C542 231.5 591.33 182.17 597.49 176.01C601.51 178.01 605.96 179.07 610.58 179.07C618.44 179.07 625.83 176.01 631.38 170.46C636.94 164.9 640 157.52 640 149.66C640 141.8 636.94 134.41 631.38 128.86C625.83 123.3 618.44 120.24 610.58 120.24C602.73 120.24 595.34 123.3 589.78 128.86C584.23 134.41 581.17 141.8 581.17 149.66C581.17 154.28 582.23 158.73 584.23 162.75C578.07 168.91 528.74 218.24 522.58 224.41C518.67 228.31 513.48 230.46 507.95 230.46C506.06 230.46 496.64 230.46 479.67 230.46C479.67 218.05 479.67 211.16 479.67 209.78C479.67 182.51 457.49 160.32 430.22 160.32C428.84 160.32 421.95 160.32 409.53 160.32C409.53 110.53 409.53 82.86 409.53 77.33C421.17 73.41 429.57 62.4 429.57 49.46C429.57 33.24 416.38 20.04 400.16 20.04C383.94 20.04 370.74 33.24 370.74 49.46C370.74 62.4 379.15 73.41 390.78 77.33C390.78 82.86 390.78 110.53 390.78 160.32L369.45 160.32C369.45 135.89 369.45 122.31 369.45 119.6C369.45 114.42 365.26 110.22 360.08 110.22C354.9 110.22 350.7 114.42 350.7 119.6C350.7 122.31 350.7 135.89 350.7 160.32L329.37 160.32C329.37 69.75 329.37 19.44 329.37 9.38C329.37 4.2 325.18 0 320 0C314.82 0 310.62 4.2 310.62 9.38C310.62 19.44 310.62 69.75 310.62 160.32L289.29 160.32C289.29 135.89 289.29 122.31 289.29 119.6C289.29 114.42 285.1 110.22 279.92 110.22C274.74 110.22 270.54 114.42 270.54 119.6C270.54 122.31 270.54 135.89 270.54 160.32L249.21 160.32C249.21 143.36 249.21 133.93 249.21 132.05C249.21 121.52 245.11 111.61 237.66 104.16C231.49 98 182.15 48.65 175.98 42.49C181.43 31.48 179.61 17.77 170.46 8.62C158.99 -2.85 140.33 -2.85 128.86 8.62C117.39 20.09 117.39 38.75 128.86 50.22C134.59 55.95 142.13 58.82 149.66 58.82C154.14 58.82 158.62 57.78 162.73 55.74C168.89 61.91 218.24 111.26 224.41 117.42C228.31 121.33 230.46 126.52 230.46 132.05C230.46 133.93 230.46 143.36 230.46 160.32C218.05 160.32 211.16 160.32 209.78 160.32C205.6 160.32 201.44 160.85 197.42 161.88C192.41 163.17 189.39 168.28 190.68 173.3C191.97 178.31 197.08 181.33 202.09 180.04C204.59 179.4 207.17 179.07 209.78 179.07C231.82 179.07 408.18 179.07 430.22 179.07C447.15 179.07 460.92 192.85 460.92 209.78C460.92 231.82 460.92 408.18 460.92 430.22C460.92 432.82 460.6 435.41 459.96 437.9C458.67 442.91 461.69 448.02 466.7 449.31C467.49 449.51 468.27 449.61 469.05 449.61C473.22 449.61 477.03 446.8 478.12 442.57C479.15 438.55 479.67 434.4 479.67 430.22C479.67 428.84 479.67 421.95 479.67 409.53C529.47 409.53 557.13 409.53 562.67 409.53C566.59 421.17 577.6 429.57 590.54 429.57C606.76 429.57 619.96 416.38 619.96 400.16C619.96 383.94 606.76 370.74 590.54 370.74C577.6 370.74 566.59 379.15 562.67 390.78C557.13 390.78 529.47 390.78 479.67 390.78L479.67 369.45C504.11 369.45 517.69 369.45 520.4 369.45C525.58 369.45 529.78 365.26 529.78 360.08C529.78 354.9 525.58 350.7 520.4 350.7C517.69 350.7 504.11 350.7 479.67 350.7L479.67 329.37C570.24 329.37 620.56 329.37 630.62 329.37C635.8 329.37 640 325.18 640 320C640 314.82 635.8 310.63 630.62 310.63C610.5 310.63 560.18 310.63 479.68 310.63ZM610.58 138.99C613.43 138.99 616.11 140.1 618.12 142.12C620.14 144.13 621.25 146.81 621.25 149.66C621.25 152.51 620.14 155.18 618.12 157.2C616.11 159.21 613.43 160.32 610.58 160.32C607.73 160.32 605.06 159.21 603.04 157.2C601.03 155.18 599.92 152.51 599.92 149.66C599.92 146.81 601.03 144.13 603.04 142.12C605.06 140.1 607.73 138.99 610.58 138.99ZM142.11 36.96C137.96 32.8 137.96 26.03 142.11 21.88C144.19 19.8 146.92 18.76 149.66 18.76C152.39 18.76 155.12 19.8 157.2 21.88C161.36 26.03 161.36 32.8 157.2 36.96C153.04 41.12 146.27 41.12 142.11 36.96ZM389.49 49.46C389.49 43.58 394.28 38.79 400.16 38.79C406.04 38.79 410.82 43.58 410.82 49.46C410.82 55.34 406.04 60.12 400.16 60.12C394.28 60.12 389.49 55.34 389.49 49.46ZM601.21 400.16C601.21 406.04 596.42 410.83 590.54 410.83C584.66 410.83 579.88 406.04 579.88 400.16C579.88 394.28 584.66 389.5 590.54 389.5C596.42 389.5 601.21 394.28 601.21 400.16Z" id="bxTFO3FIL"></path><path d="M477.27 584.26C471.1 578.09 421.76 528.74 415.59 522.58C411.69 518.67 409.53 513.48 409.53 507.95C409.53 506.07 409.53 496.64 409.53 479.68C421.95 479.68 428.84 479.68 430.22 479.68C434.4 479.68 438.56 479.15 442.58 478.12C447.59 476.83 450.61 471.72 449.32 466.7C448.03 461.69 442.92 458.67 437.9 459.96C435.41 460.6 432.83 460.93 430.22 460.93C408.18 460.93 231.82 460.93 209.78 460.93C192.85 460.93 179.07 447.15 179.07 430.22C179.07 408.18 179.07 231.82 179.07 209.78C179.07 207.17 179.4 204.59 180.04 202.1C181.33 197.08 178.31 191.97 173.3 190.68C168.28 189.39 163.17 192.41 161.88 197.42C160.85 201.44 160.32 205.6 160.32 209.78C160.32 211.16 160.32 218.05 160.32 230.46C110.53 230.46 82.86 230.46 77.33 230.46C73.41 218.83 62.4 210.42 49.45 210.42C33.23 210.42 20.04 223.62 20.04 239.84C20.04 256.06 33.24 269.25 49.45 269.25C62.4 269.25 73.4 260.85 77.33 249.21C82.86 249.21 110.53 249.21 160.32 249.21L160.32 270.55C135.89 270.55 122.31 270.55 119.6 270.55C114.42 270.55 110.22 274.74 110.22 279.92C110.22 285.1 114.42 289.3 119.6 289.3C122.31 289.3 135.89 289.3 160.32 289.3L160.32 310.63C69.75 310.63 19.44 310.63 9.37 310.63C4.2 310.63 0 314.82 0 320C0 325.18 4.2 329.37 9.37 329.37C19.44 329.37 69.75 329.37 160.32 329.37L160.32 350.7C135.89 350.7 122.31 350.7 119.6 350.7C114.42 350.7 110.22 354.9 110.22 360.08C110.22 365.26 114.42 369.45 119.6 369.45C122.31 369.45 135.89 369.45 160.32 369.45L160.32 390.79C143.36 390.79 133.93 390.79 132.05 390.79C121.51 390.79 111.61 394.89 104.16 402.34C98 408.5 48.67 457.83 42.5 463.99C38.49 461.99 34.03 460.93 29.41 460.93C21.56 460.93 14.17 463.99 8.61 469.54C3.06 475.1 0 482.49 0 490.34C0 498.2 3.06 505.59 8.62 511.14C14.17 516.7 21.56 519.76 29.42 519.76C37.27 519.76 44.66 516.7 50.22 511.14C55.77 505.59 58.83 498.2 58.83 490.34C58.83 485.72 57.77 481.27 55.77 477.25C61.93 471.08 111.26 421.76 117.42 415.59C121.33 411.69 126.52 409.53 132.05 409.53C133.94 409.53 143.36 409.53 160.33 409.53C160.33 421.95 160.33 428.84 160.33 430.22C160.33 457.49 182.51 479.67 209.78 479.67C211.16 479.67 218.05 479.67 230.47 479.67C230.47 529.47 230.47 557.13 230.47 562.67C218.83 566.59 210.43 577.6 210.43 590.54C210.43 606.76 223.62 619.96 239.84 619.96C256.06 619.96 269.26 606.76 269.26 590.54C269.26 577.6 260.85 566.59 249.22 562.67C249.22 557.13 249.22 529.47 249.22 479.67L270.55 479.67C270.55 504.11 270.55 517.69 270.55 520.4C270.55 525.58 274.74 529.78 279.92 529.78C285.1 529.78 289.3 525.58 289.3 520.4C289.3 517.69 289.3 504.11 289.3 479.67L310.62 479.67C310.62 570.24 310.62 620.56 310.62 630.62C310.62 635.8 314.82 640 320 640C325.18 640 329.37 635.8 329.37 630.62C329.37 620.56 329.37 570.25 329.37 479.68L350.7 479.68C350.7 504.11 350.7 517.69 350.7 520.4C350.7 525.58 354.9 529.78 360.08 529.78C365.26 529.78 369.45 525.58 369.45 520.4C369.45 517.69 369.45 504.11 369.45 479.68L390.78 479.68C390.78 496.64 390.78 506.07 390.78 507.95C390.78 518.48 394.89 528.39 402.33 535.84C408.5 542 457.85 591.35 464.01 597.51C458.56 608.52 460.39 622.23 469.54 631.38C475.27 637.12 482.81 639.98 490.34 639.98C497.87 639.98 505.41 637.12 511.14 631.38C522.61 619.91 522.61 601.25 511.14 589.78C501.99 580.63 488.27 578.81 477.27 584.26ZM38.79 239.84C38.79 233.96 43.57 229.17 49.45 229.17C55.33 229.17 60.12 233.96 60.12 239.84C60.12 245.72 55.34 250.5 49.45 250.5C43.57 250.5 38.79 245.72 38.79 239.84ZM29.41 501.01C26.57 501.01 23.89 499.9 21.87 497.88C19.86 495.87 18.75 493.19 18.75 490.34C18.75 487.49 19.86 484.82 21.87 482.8C23.89 480.79 26.57 479.68 29.41 479.68C32.26 479.68 34.94 480.79 36.96 482.8C38.97 484.82 40.08 487.49 40.08 490.34C40.08 493.19 38.97 495.87 36.96 497.88C34.94 499.9 32.26 501.01 29.41 501.01ZM239.84 601.21C233.96 601.21 229.17 596.42 229.17 590.54C229.17 584.66 233.96 579.88 239.84 579.88C245.72 579.88 250.5 584.66 250.5 590.54C250.5 596.42 245.72 601.21 239.84 601.21ZM482.8 618.13C478.64 613.97 478.64 607.2 482.8 603.04C484.88 600.96 487.61 599.92 490.34 599.92C493.07 599.92 495.8 600.96 497.88 603.04C502.04 607.2 502.04 613.97 497.88 618.13C493.72 622.28 486.96 622.28 482.8 618.13Z" id="g6n9csUQt"></path><path d="M384.81 252.4C385.41 249.95 385.74 247.43 385.74 244.85C385.74 225.87 368.89 210.42 348.18 210.42C336.96 210.42 326.89 214.96 320 222.13C313.11 214.96 303.04 210.42 291.82 210.42C271.11 210.42 254.26 225.87 254.26 244.85C254.26 247.43 254.59 249.95 255.19 252.4C235.11 257.92 220.45 274.9 220.45 294.95C220.45 304.75 223.91 314 230.32 321.63C224.06 329.74 220.45 339.58 220.45 350.06C220.44 366 228.96 380.89 242.99 390.12C242.99 390.13 242.99 390.13 242.99 390.14C242.99 411.89 262.37 429.58 286.18 429.58C299.87 429.58 312.08 423.73 320 414.63C327.92 423.73 340.13 429.58 353.82 429.58C376.74 429.58 395.54 413.19 396.92 392.57C410.84 384.5 419.55 370.35 419.55 355.07C419.55 343.83 414.76 333.11 406.52 325.01C414.76 316.91 419.55 306.19 419.55 294.95C419.55 274.9 404.89 257.92 384.81 252.4ZM400.8 355.07C400.8 361.68 397.73 367.98 392.54 372.7C387.61 363.57 378.9 356.31 367.9 352.85C362.96 351.3 357.69 354.04 356.14 358.98C354.59 363.92 357.34 369.18 362.28 370.74C371.83 373.74 378.26 381.54 378.26 390.14C378.26 401.55 367.29 410.83 353.81 410.83C340.33 410.83 329.37 401.55 329.37 390.14C329.37 384.13 329.37 336.03 329.37 330.02C329.37 318.62 340.33 309.34 353.81 309.34C358.99 309.34 363.19 305.14 363.19 299.96C363.19 294.78 358.99 290.59 353.81 290.59C344.74 290.59 336.32 293.16 329.37 297.53C329.37 296.34 329.37 286.76 329.37 285.56C329.37 280.38 325.17 276.18 320 276.18C314.82 276.18 310.62 280.38 310.62 285.56C310.62 290.76 310.62 332.4 310.62 337.6C307.47 335.62 304.01 333.98 300.26 332.81C295.32 331.26 290.06 334 288.51 338.94C286.96 343.88 289.7 349.14 294.64 350.7C304.2 353.7 310.62 361.5 310.62 370.1C310.62 372.11 310.62 388.14 310.62 390.14C310.62 401.55 299.66 410.83 286.18 410.83C272.7 410.83 261.73 401.55 261.73 390.14C261.73 385.25 263.81 380.5 267.57 376.76C271.24 373.11 271.26 367.17 267.61 363.5C263.96 359.83 258.02 359.81 254.35 363.46C252.11 365.69 250.17 368.13 248.56 370.73C242.64 365.13 239.19 357.76 239.19 350.06C239.19 336.17 250.09 323.97 265.7 320.39C270.74 319.23 273.9 314.2 272.74 309.15C271.58 304.11 266.55 300.95 261.51 302.11C255.22 303.55 249.44 305.96 244.31 309.12C240.98 304.94 239.19 300.05 239.19 294.95C239.19 280.85 252.56 269.37 269.04 269.26C269.12 269.26 269.21 269.27 269.29 269.27C271.43 269.27 273.58 268.54 275.34 267.05C278.94 264.01 279.66 258.85 277.24 254.96C277.17 254.85 277.11 254.73 277.03 254.62C276.99 254.56 276.95 254.51 276.91 254.45C276.76 254.25 276.61 254.05 276.45 253.86C276.45 253.85 276.44 253.85 276.44 253.84C274.88 251.99 273.01 248.93 273.01 244.85C273.01 236.21 281.45 229.17 291.82 229.17C302.18 229.17 310.62 236.21 310.62 244.85C310.62 250.03 314.82 254.22 320 254.22C325.17 254.22 329.37 250.03 329.37 244.85C329.37 236.21 337.81 229.17 348.18 229.17C358.55 229.17 366.98 236.21 366.98 244.85C366.98 247.16 366.38 249.13 365.58 250.75C360.24 251.25 355.09 252.54 350.19 254.61C345.42 256.62 343.18 262.12 345.19 266.89C347.21 271.66 352.7 273.9 357.48 271.88C361.53 270.18 365.89 269.3 370.44 269.26C370.53 269.26 370.61 269.27 370.7 269.27C370.79 269.27 370.87 269.26 370.95 269.26C387.43 269.37 400.8 280.85 400.8 294.95C400.8 303.81 395.41 311.95 386.37 316.72C383.3 318.34 381.37 321.53 381.37 325.01C381.37 328.49 383.3 331.68 386.37 333.3C395.41 338.07 400.8 346.21 400.8 355.07Z" id="aSbN7kuYB"></path></defs><g><g><g><use xlink:href="#bxTFO3FIL" opacity="1" fill="#ffffff" fill-opacity="1"></use><g><use xlink:href="#bxTFO3FIL" opacity="1" fill-opacity="0" stroke="#000000" stroke-width="1" stroke-opacity="0"></use></g></g><g><use xlink:href="#g6n9csUQt" opacity="1" fill="#ffffff" fill-opacity="1"></use><g><use xlink:href="#g6n9csUQt" opacity="1" fill-opacity="0" stroke="#000000" stroke-width="1" stroke-opacity="0"></use></g></g><g><use xlink:href="#aSbN7kuYB" opacity="1" fill="#ffffff" fill-opacity="1"></use><g><use xlink:href="#aSbN7kuYB" opacity="1" fill-opacity="0" stroke="#000000" stroke-width="1" stroke-opacity="0"></use></g></g></g></g></svg>