<?xml version="1.0" encoding="UTF-8" standalone="no"?>
<!DOCTYPE svg PUBLIC "-//W3C//DTD SVG 1.1//EN" "http://www.w3.org/Graphics/SVG/1.1/DTD/svg11.dtd">
<svg version="1.1" xmlns="http://www.w3.org/2000/svg" xmlns:xlink="http://www.w3.org/1999/xlink" preserveAspectRatio="xMidYMid meet" viewBox="0 0 640 640" width="640" height="640"><defs><path d="M319.98 0C143.26 0 0 143.26 0 319.98C0 479.69 117.01 612.06 269.98 636.06C269.98 621.16 269.98 546.63 269.98 412.47L188.74 412.47L188.74 319.98L269.98 319.98C269.98 277.68 269.98 254.18 269.98 249.48C269.98 169.29 317.75 124.99 390.84 124.99C425.85 124.99 462.46 131.24 462.46 131.24C462.46 136.49 462.46 162.74 462.46 209.98C438.26 209.98 424.81 209.98 422.12 209.98C382.37 209.98 369.97 234.65 369.97 259.95C369.97 263.95 369.97 283.96 369.97 319.98L458.71 319.98L444.53 412.47L369.97 412.47C369.97 546.63 369.97 621.16 369.97 636.06C522.94 612.06 639.95 479.69 639.95 319.98C639.95 143.26 496.69 0 319.98 0Z" id="b3G3NDtWzV"></path></defs><g><g><g><use xlink:href="#b3G3NDtWzV" opacity="1" fill="#ffffff" fill-opacity="1"></use><g><use xlink:href="#b3G3NDtWzV" opacity="1" fill-opacity="0" stroke="#000000" stroke-width="1" stroke-opacity="0"></use></g></g></g></g></svg>