<?xml version="1.0" encoding="UTF-8" standalone="no"?>
<!DOCTYPE svg PUBLIC "-//W3C//DTD SVG 1.1//EN" "http://www.w3.org/Graphics/SVG/1.1/DTD/svg11.dtd">
<svg version="1.1" xmlns="http://www.w3.org/2000/svg" xmlns:xlink="http://www.w3.org/1999/xlink" preserveAspectRatio="xMidYMid meet" viewBox="0 0 640 640" width="640" height="640"><defs><path d="M637.6 101.07C579.84 373.87 547.75 525.42 541.33 555.73C534.67 588 515.2 595.73 488 580.8C478.22 573.56 429.33 537.39 341.33 472.27C298.77 513.39 275.13 536.23 270.4 540.8C262.4 548.8 255.73 555.73 241.07 555.73C221.87 555.73 225.07 548.53 218.67 530.4C215.29 519.4 198.4 464.37 168 365.33C80.8 338.13 32.36 323.02 22.67 320C-8.8 310.67 -9.07 289.07 29.6 273.33C86.29 251.47 539.84 76.53 596.53 54.67C622.4 43.2 647.2 61.07 637.33 100.8C637.37 100.84 637.46 100.92 637.6 101.07Z" id="c1zZWpiEFc"></path></defs><g><g><g><use xlink:href="#c1zZWpiEFc" opacity="1" fill="#ffffff" fill-opacity="1"></use><g><use xlink:href="#c1zZWpiEFc" opacity="1" fill-opacity="0" stroke="#000000" stroke-width="1" stroke-opacity="0"></use></g></g></g></g></svg>